<svg width="481" height="123" viewBox="0 0 481 123" fill="none" xmlns="http://www.w3.org/2000/svg" class="wsc-svg-logo-modao-group-zh-horizontal">
<g clip-path="url(#modao-group-zh-horizontal-clip0)">
<path d="M84.7034 74.6723C88.1509 74.6723 90.3156 77.4557 90.3156 80.7302C90.3156 84.0048 88.0707 86.7882 84.7034 86.7882C81.3361 86.7882 79.1714 84.0048 79.1714 80.7302C79.0912 77.5375 81.3361 74.6723 84.7034 74.6723ZM84.4629 70.7428C78.6102 70.7428 74.6816 75.4091 74.6816 80.8121C74.6816 86.2152 78.6903 90.8814 84.4629 90.8814C86.7077 90.8814 89.1931 89.7353 90.3957 87.7706V90.3903H94.8855V61.574H90.3957V73.7718C89.1931 71.8889 86.6276 70.7428 84.4629 70.7428Z" fill="black"/>
<path d="M150.205 61.574V90.3903H154.695V80.4847C154.695 77.2101 156.138 74.6723 159.265 74.6723C162.472 74.6723 163.434 77.2101 163.434 80.4847V90.3903H167.924V79.0111C167.924 76.3914 167.603 74.7541 166.721 73.3625C165.679 71.7252 163.754 70.7428 160.948 70.7428C158.142 70.7428 155.897 71.8889 154.695 73.9355V61.574H150.205Z" fill="black"/>
<path d="M10.6218 90.3903H7.57522L0.199219 71.234H5.00966L9.09853 83.3499L13.4279 71.234H17.8375L22.0867 83.3499L26.2558 71.234H31.0662L23.61 90.3903H20.6436L15.6728 76.064L10.6218 90.3903Z" fill="black"/>
<path d="M35.558 80.8122C35.558 77.5377 37.8029 74.7543 41.09 74.7543C44.5375 74.7543 46.7824 77.5377 46.7824 80.8122C46.7824 84.0868 44.5375 86.8702 41.09 86.8702C37.8029 86.8702 35.558 84.0868 35.558 80.8122ZM41.1702 70.7429C35.077 70.7429 31.1484 75.4092 31.1484 80.8122C31.1484 86.2153 35.1571 90.8815 41.1702 90.8815C47.3436 90.8815 51.2721 86.2153 51.2721 80.8122C51.2721 75.3273 47.2634 70.7429 41.1702 70.7429Z" fill="black"/>
<path d="M53.9941 71.2341V90.4722H58.4839V80.4848C58.4839 77.2102 59.927 74.6724 63.0538 74.6724C66.2608 74.6724 67.2228 77.2102 67.2228 80.4848V90.3904H71.7126V79.0112C71.7126 76.3916 71.3919 74.7543 70.51 73.3626C69.4677 71.7253 67.5435 70.7429 64.7375 70.7429C61.9314 70.7429 59.6865 71.889 58.4839 73.9356V71.2341H53.9941Z" fill="black"/>
<path d="M102.183 78.8475C102.183 75.9822 104.268 74.5087 106.913 74.5087C109.639 74.5087 111.564 76.2278 111.564 78.8475H102.183ZM107.074 70.7429C101.061 70.7429 97.6133 75.0817 97.6133 80.8122C97.6133 86.0515 100.74 90.8815 107.154 90.8815C112.045 90.8815 115.091 87.9344 115.733 84.578H111.243C110.682 85.9697 109.72 87.1158 107.154 87.1158C103.546 87.1158 102.183 84.9054 102.183 82.1221H115.652C115.893 80.8941 115.893 79.9936 115.893 79.3387C115.893 74.4268 111.964 70.7429 107.074 70.7429Z" fill="black"/>
<path d="M118.617 71.2339V90.4721H123.107V82.2037C123.107 77.4556 125.191 75.2453 129.04 75.2453C129.761 75.2453 130.082 75.2453 130.804 75.409V71.3158C130.323 71.1521 129.761 71.0702 129.04 71.0702C126.474 71.0702 123.989 72.6256 123.107 74.4266V71.2339H118.617Z" fill="black"/>
<path d="M139.705 74.2629C141.869 74.2629 142.751 75.409 142.751 77.21H147.081C147.081 73.4443 143.874 70.6609 139.785 70.6609C135.856 70.6609 132.649 72.6256 132.649 76.2277C132.649 79.5841 134.573 80.5665 137.219 81.5488C141.228 83.1043 143.152 83.268 143.152 85.069C143.152 86.7063 141.789 87.2794 140.025 87.2794C137.861 87.2794 136.337 86.3788 136.337 83.8411H132.008C132.008 88.3436 135.696 90.7995 139.785 90.7995C143.954 90.7995 147.401 88.9166 147.401 84.9053C147.401 81.3851 144.836 80.4846 142.19 79.4204C138.742 78.0287 136.979 77.865 136.979 76.2277C136.898 74.9997 138.181 74.2629 139.705 74.2629Z" fill="black"/>
<path d="M180.67 74.6724C184.118 74.6724 186.282 77.4558 186.282 80.7304C186.282 84.0049 184.037 86.7883 180.67 86.7883C177.303 86.7883 175.138 84.0049 175.138 80.7304C175.138 77.5377 177.383 74.6724 180.67 74.6724ZM180.43 70.7429C174.577 70.7429 170.648 75.4092 170.648 80.8122C170.648 86.2153 174.657 90.8815 180.43 90.8815C182.675 90.8815 185.16 89.7354 186.363 87.7707V90.3904H190.852V71.2341H186.363V73.8538C185.16 71.889 182.675 70.7429 180.43 70.7429Z" fill="black"/>
<path d="M195.023 71.2339V90.4721H199.513V82.2037C199.513 77.4556 201.598 75.2453 205.446 75.2453C206.168 75.2453 206.488 75.2453 207.21 75.409V71.3158C206.729 71.1521 206.168 71.0702 205.446 71.0702C202.88 71.0702 200.395 72.6256 199.513 74.4266V71.2339H195.023Z" fill="black"/>
<path d="M212.497 82.2039H226.047C226.287 80.976 226.287 80.0755 226.287 79.4205C226.287 74.5087 222.359 70.7429 217.468 70.7429C211.455 70.7429 208.088 75.0817 208.088 80.8122C208.088 86.0515 211.215 90.8815 217.629 90.8815C222.519 90.8815 225.566 87.9344 226.207 84.578H221.477C220.916 85.9697 219.954 87.1158 217.388 87.1158C213.86 87.1158 212.497 84.9054 212.497 82.2039ZM212.497 78.8475C212.497 75.9822 214.582 74.5087 217.228 74.5087C219.954 74.5087 221.878 76.2278 221.878 78.8475H212.497Z" fill="black"/>
<path d="M108.995 26.1267C110.438 27.5184 110.438 29.8925 108.995 31.2842L98.0909 42.254L69.4688 13.6015L83.0182 0.0119629L108.995 26.1267Z" fill="black"/>
<path d="M143.39 0.0119629L156.859 13.6015L143.39 27.1909L127.916 11.6367L127.996 11.5548C129.439 12.4554 131.283 12.2098 132.486 10.9818L143.39 0.0119629Z" fill="black"/>
<path d="M113.165 0.0119629L139.141 26.1267C140.585 27.6003 140.585 29.8925 139.141 31.2842L128.238 42.254L97.6914 11.5548L97.7716 11.473C99.2147 12.3735 101.059 12.1279 102.261 10.8999L113.165 0.0119629Z" fill="black"/>
<path d="M64.2578 103.243H69.1484V108.155C69.1484 110.775 68.3467 113.394 66.8234 115.359C66.0216 116.423 65.1397 117.324 64.2578 117.815V121.335C66.2622 120.598 67.9458 119.125 69.389 117.242C70.9924 115.113 71.9545 112.576 72.2752 109.874H81.5754V116.833C81.5754 117.569 81.0142 118.142 80.2926 118.142H77.1658V121.335H81.4151C83.2591 121.335 84.7022 119.862 84.7022 118.061V109.874V106.681H81.5754H72.3554V103.161H86.3858V99.9685H64.2578V103.243Z" fill="black"/>
<path d="M145.634 100.05H142.507V102.834H140.021V106.026H142.507V110.201L140.021 111.02V114.213L142.507 113.394V116.914C142.507 117.651 141.946 118.224 141.224 118.224H140.102V121.417H142.427C144.191 121.417 145.714 119.943 145.714 118.142V112.33L147.558 111.675V108.482L145.714 109.137V106.108H147.558V102.916H145.714V100.05H145.634Z" fill="black"/>
<path d="M134.33 100.05H131.123V113.149H124.389V116.341H131.123V121.335H134.33V116.341H136.896V113.149H134.33V100.05Z" fill="black"/>
<path d="M120.941 103.243H123.827V100.05H115.008V103.243H117.814V105.29H114.768V108.482H117.494L114.768 112.739V118.552L117.814 113.804V121.335H120.941V112.166L124.068 114.704V110.611L121.502 108.482H124.068V105.29H120.941V103.243Z" fill="black"/>
<path d="M162.151 105.208V102.015H156.86V99.9685H153.733V102.015H148.441V105.208H153.733V107.091H148.441V110.283H158.784C158.223 111.43 157.1 113.067 155.336 114.622C154.054 113.476 153.172 112.33 152.53 111.266H148.922C149.564 112.576 150.686 114.54 152.691 116.423C151.488 117.078 150.205 117.651 148.522 118.061V121.335C151.408 120.68 153.573 119.698 155.417 118.552C157.261 119.698 159.586 120.762 162.312 121.417V118.142C160.788 117.733 159.265 117.16 158.142 116.505C160.628 114.131 161.911 111.675 162.312 110.283V107.091H157.02V105.208H162.151Z" fill="black"/>
<path d="M107.153 112.903H103.625C103.946 113.722 106.511 119.534 111.642 121.335V117.897C109.398 116.587 107.874 114.295 107.153 112.903Z" fill="black"/>
<path d="M111 100.05H107.713C107.072 102.424 105.709 106.599 104.105 108.728H103.624H89.5137V111.921H94.0836C93.5224 113.558 92.3198 116.096 89.5137 117.815V121.417C94.9655 118.961 96.8095 114.131 97.3707 111.921H111.642V108.728H107.874C109.637 105.535 110.68 101.36 111 100.05Z" fill="black"/>
<path d="M96.2476 107.746L93.4415 100.05H90.0742L92.8803 107.746H96.2476Z" fill="black"/>
<path d="M103.304 107.746L100.498 100.05H97.1309L99.9369 107.746H103.304Z" fill="black"/>
<path d="M129.92 111.921V108.646L125.35 106.845V110.038L129.92 111.921Z" fill="black"/>
<path d="M129.92 106.026V102.834L125.35 100.951V104.144L129.92 106.026Z" fill="black"/>
<path d="M258.039 1.08069H257.045V123.386H258.039V1.08069Z" fill="black"/>
<g clip-path="url(#modao-group-zh-horizontal-clip1)">
<path d="M288.914 60.9427V33.1398C288.914 32.7922 289.141 32.5605 289.481 32.5605H303.884C304.224 32.5605 304.451 32.7922 304.451 33.1398V60.9427C304.451 61.2902 304.224 61.5219 303.884 61.5219H289.481C289.141 61.5219 288.914 61.2902 288.914 60.9427Z" fill="#FF3333"/>
<path d="M314.318 60.9423V33.1394C314.318 32.7919 314.545 32.5602 314.885 32.5602H329.288C329.628 32.5602 329.855 32.7919 329.855 33.1394V60.9423C329.855 61.2898 329.628 61.5215 329.288 61.5215H314.885C314.545 61.5215 314.318 61.2898 314.318 60.9423Z" fill="#FF3333"/>
<path d="M357.299 32.5602C357.639 32.5602 357.866 32.7919 357.866 33.1394V55.0342C357.866 57.2353 357.753 59.3205 357.412 61.5215C355.258 77.5082 345.165 90.8304 331.329 97.4336C330.989 97.5495 330.649 97.4336 330.535 97.0861L324.638 83.648C324.525 83.3005 324.638 82.9529 324.978 82.8371C335.185 77.9716 342.216 67.3138 342.216 55.0342V33.1394C342.216 32.7919 342.443 32.5602 342.783 32.5602H357.299Z" fill="#FF3333"/>
<path d="M429.875 33.0233V39.0473C429.875 39.279 430.101 39.5107 430.328 39.5107H440.988C440.761 43.9128 440.194 52.8329 440.081 55.2656C439.854 60.247 438.607 64.1857 436.452 67.4294C434.524 70.2097 431.802 72.4108 428.287 73.9168C428.06 74.0326 427.947 74.2643 428.06 74.496L430.555 79.9407C430.668 80.1724 430.895 80.2882 431.122 80.1724C440.535 76.002 446.092 67.6611 446.772 56.4241L447.679 39.5107H465.144V79.2456C465.144 79.4773 465.37 79.709 465.597 79.709H471.494C471.721 79.709 471.948 79.4773 471.948 79.2456V33.0233C471.948 32.7916 471.721 32.5599 471.494 32.5599H430.328C430.101 32.5599 429.875 32.7916 429.875 33.0233Z" fill="#1C1C1C"/>
<path d="M417.4 57.8142H399.029V55.729H416.833C417.06 55.729 417.287 55.4973 417.287 55.2656V51.5586C417.287 51.3269 417.06 51.0952 416.833 51.0952H399.029V49.01H416.833C417.06 49.01 417.287 48.7783 417.287 48.5466V33.0233C417.287 32.7916 417.06 32.5599 416.833 32.5599H375.554C375.327 32.5599 375.1 32.7916 375.1 33.0233V48.6624C375.1 48.8941 375.327 49.1258 375.554 49.1258H393.359V51.2111H375.554C375.327 51.2111 375.1 51.4427 375.1 51.6744V55.3815C375.1 55.6132 375.327 55.8449 375.554 55.8449H393.359V57.9301H374.874C374.647 57.9301 374.42 58.1618 374.42 58.3935V62.1005C374.42 62.3322 374.647 62.5639 374.874 62.5639H417.287C417.514 62.5639 417.741 62.3322 417.741 62.1005V58.3935C417.854 58.0459 417.627 57.8142 417.4 57.8142ZM411.503 44.6079H399.029V37.0779H411.617V44.6079H411.503ZM380.771 44.6079V37.0779H393.359V44.492H380.771V44.6079Z" fill="#1C1C1C"/>
<path d="M399.03 73.5692H417.175C417.402 73.5692 417.629 73.3375 417.629 73.1058V69.3987C417.629 69.167 417.402 68.9353 417.175 68.9353H399.03V63.954C399.03 63.7223 398.803 63.4906 398.576 63.4906H393.813C393.587 63.4906 393.36 63.7223 393.36 63.954V68.9353H375.102C374.875 68.9353 374.648 69.167 374.648 69.3987V73.1058C374.648 73.3375 374.875 73.5692 375.102 73.5692H393.246V75.191H373.741C373.514 75.191 373.287 75.4227 373.287 75.6544V79.3614C373.287 79.5931 373.514 79.8248 373.741 79.8248H418.536C418.763 79.8248 418.989 79.5931 418.989 79.3614V75.6544C418.989 75.4227 418.763 75.191 418.536 75.191H399.03V73.5692Z" fill="#1C1C1C"/>
<path d="M388.708 38.8156H384.285C384.172 38.8156 384.059 38.9314 384.059 39.0472L384.739 42.7543C384.739 42.8701 384.852 42.986 384.966 42.986H389.389C389.502 42.986 389.615 42.8701 389.615 42.7543L388.935 39.0472C388.822 38.8156 388.822 38.8156 388.708 38.8156Z" fill="#1C1C1C"/>
<path d="M407.537 42.7543L408.217 39.0472C408.217 38.9314 408.104 38.8156 407.99 38.8156H403.567C403.454 38.8156 403.341 38.9314 403.341 39.0472L402.66 42.7543C402.66 42.8701 402.774 42.986 402.887 42.986H407.31C407.423 42.8701 407.537 42.8701 407.537 42.7543Z" fill="#1C1C1C"/>
<path d="M412.189 67.777H416.611C416.725 67.777 416.838 67.6612 416.838 67.5453L416.158 63.8383C416.158 63.7224 416.044 63.6066 415.931 63.6066H411.395C411.281 63.6066 411.168 63.7224 411.168 63.8383L411.848 67.5453C411.962 67.6612 412.075 67.777 412.189 67.777Z" fill="#1C1C1C"/>
<path d="M403.567 67.777H407.99C408.104 67.777 408.217 67.6612 408.217 67.5453L407.537 63.8383C407.537 63.7224 407.423 63.6066 407.31 63.6066H402.887C402.774 63.6066 402.66 63.7224 402.66 63.8383L403.341 67.5453C403.454 67.6612 403.567 67.777 403.567 67.777Z" fill="#1C1C1C"/>
<path d="M380.318 67.5453L380.998 63.8383C380.998 63.7224 380.885 63.6066 380.771 63.6066H376.349C376.235 63.6066 376.122 63.7224 376.122 63.8383L375.441 67.5453C375.441 67.6612 375.555 67.777 375.668 67.777H380.091C380.204 67.777 380.318 67.6612 380.318 67.5453Z" fill="#1C1C1C"/>
<path d="M388.935 67.5453L389.615 63.8383C389.615 63.7224 389.502 63.6066 389.389 63.6066H384.966C384.852 63.6066 384.739 63.7224 384.739 63.8383L384.059 67.5453C384.059 67.6612 384.172 67.777 384.285 67.777H388.708C388.822 67.777 388.822 67.6612 388.935 67.5453Z" fill="#1C1C1C"/>
</g>
</g>
<defs>
<clipPath id="modao-group-zh-horizontal-clip0">
<rect width="480.162" height="122.305" fill="white" transform="translate(0.199219 0.0119629)"/>
</clipPath>
<clipPath id="modao-group-zh-horizontal-clip1">
<rect width="183.036" height="64.8734" fill="white" transform="translate(288.459 32.5602)"/>
</clipPath>
</defs>
</svg>
